{"title":"Pacific.Rim.Uprising.2018.HD.CAM.MP3.128kbps.LLLG","magnet":"magnet:?xt=urn:btih:17bbf257ef2e9efe5bc4d8f3103afb8ec1d0acb9&dn=Pacific.Rim.Uprising.2018.HD.CAM.MP3.128kbps.LLLG&tr=udp%3A%2F%2Ftracker.leechers-paradise.org%3A6969&tr=udp%3A%2F%2Fzer0day.ch%3A1337&tr=udp%3A%2F%2Fopen.demonii.com%3A1337&tr=udp%3A%2F%2Ftracker.coppersurfer.tk%3A6969&tr=udp%3A%2F%2Fexodus.desync.com%3A6969","uploader":"LifeLongg","categoryP":"video","categoryS":"movies","size":"1033248890","seeders":"69","leechers":"98","description":"******************************Screenshots:********************\r\n <a href=\"\nhttp://picserver4u.com/iphone/0001.html\" rel=\"nofollow\" target=\"_NEW\">\nhttp://picserver4u.com/iphone/0001.html</a>\r\n <a href=\"\nhttp://picserver4u.com/iphone/0002.html\" rel=\"nofollow\" target=\"_NEW\">\nhttp://picserver4u.com/iphone/0002.html</a>\r\n <a href=\"\nhttp://picserver4u.com/iphone/0003.html\" rel=\"nofollow\" target=\"_NEW\">\nhttp://picserver4u.com/iphone/0003.html</a>\r\n <a href=\"\nhttp://picserver4u.com/iphone/0004.html\" rel=\"nofollow\" target=\"_NEW\">\nhttp://picserver4u.com/iphone/0004.html</a>\r\n <a href=\"\nhttp://picserver4u.com/iphone/0005.html\" rel=\"nofollow\" target=\"_NEW\">\nhttp://picserver4u.com/iphone/0005.html</a>\r\n\r\n************************************************************** \r\n\r\nComplete name                            : Pacific.Rim.Uprising.2018.HD.CAM.MP3.128kbps.LLG.mp4\r\nFormat                                   : MPEG-4\r\nFormat profile                           : Base Media\r\nCodec ID                                 : isom (isom/iso2/avc1/mp41)\r\nFile size                                : 957 MiB\r\nDuration                                 : 1 h 40 min\r\nOverall bit rate                         : 1 331 kb/s\r\nWriting application                      : Lavf57.56.101\r\n\r\nVideo\r\nID                                       : 1\r\nFormat                                   : AVC\r\nFormat/Info                              : Advanced Video Codec\r\nFormat profile                           : <a href=\"/cdn-cgi/l/email-protection\" class=\"__cf_email__\" data-cfemail=\"9bd3f2fcf3dbd7a8\">[email&#xA0;protected]</a>\r\nFormat settings                          : CABAC / 4 Ref Frames\r\nFormat settings, CABAC                   : Yes\r\nFormat settings, RefFrames               : 4 frames\r\nCodec ID                                 : avc1\r\nCodec ID/Info                            : Advanced Video Coding\r\nDuration                                 : 1 h 40 min\r\nBit rate                                 : 1 200 kb/s\r\nWidth                                    : 720 pixels\r\nHeight                                   : 304 pixels\r\nDisplay aspect ratio                     : 2.35:1\r\nFrame rate mode                          : Constant\r\nFrame rate                               : 24.890 FPS\r\nColor space                              : YUV\r\nChroma subsampling                       : 4:2:0\r\nBit depth                                : 8 bits\r\nScan type                                : Progressive\r\nBits/(Pixel*Frame)                       : 0.220\r\nStream size                              : 862 MiB (90%)\r\n\r\nAudio\r\nID                                       : 2\r\nFormat                                   : MPEG Audio\r\nFormat version                           : Version 1\r\nFormat profile                           : Layer 3\r\nFormat settings                          : Joint stereo\r\nCodec ID                                 : mp4a-6B\r\nDuration                                 : 1 h 40 min\r\nDuration_LastFrame                       : -1 ms\r\nBit rate mode                            : Constant\r\nBit rate                                 : 128 kb/s\r\nChannel(s)                               : 2 channels\r\nSampling rate                            : 48.0 kHz\r\nCompression mode                         : Lossy\r\nStream size                              : 92.1 MiB (10%)\r\nDefault                                  : Yes\r\nAlternate group                          : 1","last_updated":"2018-03-24T12:14:18.162Z","parsed":{"xt":"urn:btih:17bbf257ef2e9efe5bc4d8f3103afb8ec1d0acb9","dn":"Pacific.Rim.Uprising.2018.HD.CAM.MP3.128kbps.LLLG","tr":["udp://exodus.desync.com:6969","udp://open.demonii.com:1337","udp://tracker.coppersurfer.tk:6969","udp://tracker.leechers-paradise.org:6969","udp://zer0day.ch:1337"],"infoHash":"17bbf257ef2e9efe5bc4d8f3103afb8ec1d0acb9","infoHashBuffer":{"type":"Buffer","data":[23,187,242,87,239,46,158,254,91,196,216,243,16,58,251,142,193,208,172,185]},"name":"Pacific.Rim.Uprising.2018.HD.CAM.MP3.128kbps.LLLG","announce":["udp://exodus.desync.com:6969","udp://open.demonii.com:1337","udp://tracker.coppersurfer.tk:6969","udp://tracker.leechers-paradise.org:6969","udp://zer0day.ch:1337"],"urlList":[]}}